<svg width="59" height="59" fill="none" xmlns="http://www.w3.org/2000/svg"><path fill="#E5E5E5" d="M0 0h59v59H0z"/><path d="M35.91 24.68c1.2-.928.91-1.68-.65-1.68H24.73c-1.56 0-1.85.761-.66 1.68l3.75 2.898c.621.45 1.387.696 2.175.696.788 0 1.554-.245 2.175-.696l3.74-2.897z" fill="#D22856"/><path d="M32.91 29.5l-2.21 1.746a1.13 1.13 0 01-.26.111l-.1.047c-.109.042-.223.07-.34.083l-.33-.056-.12-.074a1.182 1.182 0 01-.24-.13L27.08 29.5l-3.9-2.971C22 25.6 21 26.027 21 27.476v5.859a2.48 2.48 0 00.21 1.014c.14.322.348.615.61.863.263.247.576.444.92.58a3.04 3.04 0 001.09.208h12.32c.376 0 .748-.07 1.095-.203.347-.134.663-.331.927-.579.265-.247.475-.541.617-.865.142-.323.214-.669.211-1.018v-5.86c0-1.448-1-1.856-2.18-.928L32.91 29.5z" fill="#D22856"/></svg>