<svg xmlns="http://www.w3.org/2000/svg">
  <symbol viewBox="0 0 74 23" id="logo-mobile">
    <path d="M.005 1.549c0-.336.13-.66.365-.9C.604.41.922.27 1.257.262H8.39c5.057 0 8.385 2.703 8.385 7.13v.06c0 4.846-4.033 7.358-8.802 7.358H2.538v6.801a1.28 1.28 0 01-.754 1.28 1.269 1.269 0 01-1.717-.758 1.28 1.28 0 01-.062-.522V1.549zm8.067 10.968c3.706 0 6.14-1.994 6.14-4.986v-.06c0-3.21-2.394-4.875-5.961-4.875H2.588v9.881l5.484.04zM21.593 1.389a1.282 1.282 0 01.755-1.28 1.268 1.268 0 011.717.758c.056.168.077.346.062.522v20.222a1.28 1.28 0 01-.754 1.28 1.27 1.27 0 01-1.717-.758 1.282 1.282 0 01-.063-.522V1.389zM30.674 1.419A1.278 1.278 0 0131.926.173h.348a1.535 1.535 0 011.281.737l13.6 17.4V1.36A1.239 1.239 0 0148.389.122c.327 0 .64.13.871.362.231.232.36.546.36.874v20.292a1.14 1.14 0 01-.703 1.092 1.13 1.13 0 01-.449.085h-.129a1.695 1.695 0 01-1.311-.778L33.117 4.24v17.41a1.258 1.258 0 01-1.191 1.247 1.238 1.238 0 01-1.212-1.247V1.42h-.04zM55.938 1.389a1.282 1.282 0 01.755-1.28 1.268 1.268 0 011.717.758c.056.168.077.346.062.522v12.295L71.228.55c.262-.271.618-.432.994-.448a1.27 1.27 0 011.222 1.256 1.29 1.29 0 01-.418.898l-7.947 7.897 8.573 10.53c.224.26.348.593.348.937a1.312 1.312 0 01-.838 1.191 1.228 1.228 0 01-1.497-.493L63.3 11.859l-4.828 4.846v4.886a1.27 1.27 0 01-.78 1.17 1.259 1.259 0 01-1.648-.685 1.27 1.27 0 01-.096-.485V1.389h-.01z"/>
  </symbol>

  <symbol viewBox="0 0 145 40" id="logo-tablet">
    <path fill-rule="evenodd" clip-rule="evenodd" d="M53.892 6.586l5.038 21.145a1.418 1.418 0 01-.22 1.297 1.356 1.356 0 01-1.183.535H53.52c-.69 5.812-5.57 10.315-11.489 10.315-5.917 0-10.798-4.503-11.488-10.314h-1.965C27.887 35.442 22.953 40 16.968 40c-5.994 0-10.934-4.573-11.612-10.466H1.45a1.364 1.364 0 01-1.154-.536 1.418 1.418 0 01-.24-1.267L5.106 6.586C5.455 4.26 7.639 0 13.486 0c.388 0 .76.157 1.034.435.274.279.428.657.428 1.05 0 .395-.154.772-.428 1.051a1.45 1.45 0 01-1.034.435c-4.707 0-5.438 3.694-5.497 4.1L3.341 26.602h2.034c.746-5.817 5.652-10.31 11.593-10.31 5.939 0 10.843 4.488 11.593 10.3l1.998.01c.745-5.75 5.598-10.189 11.473-10.189 5.886 0 10.746 4.456 11.477 10.222v-.053h2.137l-4.639-19.51c-.068-.407-.77-4.1-5.497-4.1a1.45 1.45 0 01-1.033-.436 1.498 1.498 0 01-.428-1.05c0-.394.154-.772.428-1.05A1.45 1.45 0 0145.51 0c5.848 0 8.03 4.259 8.382 6.586zm-28.22 22.977a9.122 9.122 0 00-.022-2.97c-.725-4.195-4.336-7.383-8.681-7.383-4.349 0-7.961 3.192-8.683 7.391a9.114 9.114 0 00-.025 2.94c.66 4.273 4.308 7.541 8.707 7.541 4.392 0 8.034-3.257 8.704-7.518zm24.942 0c.073-.461.112-.934.112-1.417 0-4.868-3.893-8.815-8.694-8.815-4.802 0-8.695 3.947-8.695 8.815 0 .482.039.956.112 1.418.669 4.194 4.257 7.397 8.583 7.397 4.325 0 7.913-3.203 8.582-7.397z"/>
    <path d="M71.005 18.549c0-.337.13-.66.365-.9.234-.24.552-.379.887-.387h7.133c5.057 0 8.385 2.703 8.385 7.13v.06c0 4.846-4.034 7.358-8.802 7.358h-5.435v6.801a1.282 1.282 0 01-.754 1.28 1.27 1.27 0 01-1.717-.758 1.282 1.282 0 01-.062-.522V18.549zm8.067 10.968c3.706 0 6.14-1.994 6.14-4.986v-.06c0-3.21-2.395-4.875-5.961-4.875h-5.663v9.881l5.484.04zM92.594 18.389a1.282 1.282 0 01.754-1.28 1.269 1.269 0 011.717.758c.056.168.077.346.062.522v20.222a1.282 1.282 0 01-.754 1.28 1.27 1.27 0 01-1.717-.758 1.282 1.282 0 01-.063-.522V18.389zM101.674 18.419a1.278 1.278 0 011.252-1.247h.347a1.535 1.535 0 011.282.738l13.601 17.4V18.36c0-.329.13-.643.361-.875a1.229 1.229 0 011.742 0c.231.232.361.546.361.874v20.292c.005.154-.021.308-.076.452a1.13 1.13 0 01-1.077.725h-.129a1.69 1.69 0 01-1.311-.778l-13.909-17.81v17.41a1.257 1.257 0 01-1.192 1.247 1.23 1.23 0 01-1.212-1.246V18.419h-.04zM126.938 18.389a1.284 1.284 0 01.755-1.28 1.267 1.267 0 011.45.306 1.287 1.287 0 01.329.974v12.295l12.756-13.133c.262-.271.617-.432.994-.448.325.012.633.15.86.383.227.234.357.546.362.873a1.28 1.28 0 01-.418.897l-7.948 7.898 8.574 10.53c.224.26.348.593.348.937a1.309 1.309 0 01-1.341 1.276 1.228 1.228 0 01-.994-.578l-8.365-10.46-4.828 4.846v4.886a1.278 1.278 0 01-.37.895 1.26 1.26 0 01-2.154-.895V18.389h-.01z"/>
  </symbol>

  <symbol viewBox="0 0 147 40" id="logo-desktop">
    <path d="M72.193 18.425c0-.333.133-.652.369-.89.237-.238.558-.376.897-.384h7.211c5.113 0 8.477 2.676 8.477 7.06v.06c0 4.798-4.078 7.286-8.899 7.286h-5.494v6.734a1.243 1.243 0 01-.332.965 1.286 1.286 0 01-.948.41 1.304 1.304 0 01-.949-.41 1.26 1.26 0 01-.332-.965V18.425zm8.156 10.861c3.746 0 6.207-1.975 6.207-4.937v-.059c0-3.18-2.42-4.828-6.026-4.828h-5.725v9.785l5.544.04zM94.019 18.267a1.243 1.243 0 01.332-.965 1.286 1.286 0 01.948-.41 1.304 1.304 0 01.948.41 1.258 1.258 0 01.333.965V38.29a1.245 1.245 0 01-.332.965 1.284 1.284 0 01-.949.41 1.305 1.305 0 01-.948-.41 1.26 1.26 0 01-.332-.965V18.267zM103.199 18.297a1.25 1.25 0 01.38-.868c.236-.23.553-.362.885-.367h.352c.261.005.516.075.743.203.226.127.416.31.552.528l13.751 17.23V18.237c0-.324.131-.636.364-.865a1.259 1.259 0 011.762 0c.233.23.364.54.364.865v20.094a1.117 1.117 0 01-.711 1.082 1.161 1.161 0 01-.454.083h-.13a1.739 1.739 0 01-.756-.23 1.709 1.709 0 01-.57-.54L105.67 21.09v17.24a1.238 1.238 0 01-.353.853c-.224.23-.529.366-.853.381a1.257 1.257 0 01-.871-.369 1.21 1.21 0 01-.354-.865V18.296h-.04zM128.74 18.267a1.243 1.243 0 01.332-.965 1.287 1.287 0 01.949-.41 1.304 1.304 0 01.948.41 1.242 1.242 0 01.332.965v12.175l12.897-13.005c.264-.269.624-.428 1.004-.444.329.013.64.149.87.38.23.232.361.54.366.864a1.262 1.262 0 01-.422.889l-8.035 7.82 8.667 10.427c.227.258.352.587.352.928a1.287 1.287 0 01-.847 1.18 1.261 1.261 0 01-1.083-.08 1.23 1.23 0 01-.43-.409l-8.457-10.357-4.882 4.798v4.839a1.238 1.238 0 01-.373.886 1.282 1.282 0 01-.902.368 1.288 1.288 0 01-.902-.368 1.244 1.244 0 01-.374-.886V18.267h-.01z"/>
    <path d="M98.94 9.746a3.678 3.678 0 01-2.574-1.047 3.554 3.554 0 01-1.072-2.528c0 .948-.383 1.857-1.065 2.528a3.668 3.668 0 01-2.57 1.047c.965.002 1.89.381 2.57 1.053a3.554 3.554 0 011.065 2.53c.003-.949.388-1.86 1.071-2.53a3.688 3.688 0 012.575-1.053z" fill="#D22856"/>
    <path d="M43.287 19.067h.733a2.47 2.47 0 00-.906-.887 2.523 2.523 0 00-1.233-.328c-.418 0-.826-.129-1.166-.368a1.978 1.978 0 01-.732-.965c-.724.206-1.427.477-2.1.81h.191c.533 0 1.044.208 1.42.578.377.37.589.873.589 1.397.005.095.005.19 0 .286a8.977 8.977 0 013.204-.523z"/>
    <path d="M60.733 27.647l-5.192-21.08C55.179 4.245 52.929 0 46.903 0c-.4 0-.783.156-1.066.434a1.469 1.469 0 00-.44 1.047c0 .393.158.77.44 1.047a1.52 1.52 0 001.066.434c4.871 0 5.594 3.683 5.665 4.088l4.78 19.452H55.25a11.721 11.721 0 00-1.724-4.78 11.946 11.946 0 00-3.599-3.633 2.502 2.502 0 00-1.116.908c-.274.404-.42.878-.42 1.363.005.086.005.171 0 .257a9.148 9.148 0 012.922 3.207 8.974 8.974 0 011.095 4.169 9.042 9.042 0 01-.14 1.48 8.849 8.849 0 01-3.05 5.393 9.132 9.132 0 01-5.885 2.141 9.132 9.132 0 01-5.885-2.141 8.849 8.849 0 01-3.049-5.392 9.031 9.031 0 01-.14-1.481c.015-1.37.341-2.72.954-3.95a2.023 2.023 0 01-1.33-.625 1.957 1.957 0 01-.538-1.35.694.694 0 00-.191-.483 11.566 11.566 0 00-1.798 4.936h-1.868a11.782 11.782 0 00-3.933-7.54 12.17 12.17 0 00-8.05-3.03 12.17 12.17 0 00-8.05 3.03 11.782 11.782 0 00-3.932 7.54H3.443L8.233 7.05c.061-.405.814-4.088 5.666-4.088.4 0 .783-.156 1.065-.434.282-.277.441-.654.441-1.047 0-.393-.159-.77-.441-1.047A1.52 1.52 0 0013.899 0C7.872 0 5.623 4.246 5.26 6.566L.058 27.647a1.38 1.38 0 00.247 1.263c.14.176.322.316.529.41.207.092.433.135.66.124h4.018c.082.611.21 1.215.382 1.807a.731.731 0 00.1-.355c0-.524.212-1.026.589-1.397.376-.37.887-.578 1.42-.578.163.002.325.025.482.069a8.835 8.835 0 01-.07-1.037c.002-.496.046-.991.13-1.48a8.848 8.848 0 013.042-5.414 9.131 9.131 0 015.897-2.152c2.165 0 4.258.763 5.898 2.152a8.848 8.848 0 013.041 5.413c.085.49.128.985.131 1.481a8.87 8.87 0 01-2.665 6.267 9.18 9.18 0 01-6.374 2.62 9.146 9.146 0 01-5.454-1.708c-.363.31-.826.48-1.306.483a.76.76 0 00-.526.22.734.734 0 00-.217.521 1.946 1.946 0 01-.181.8 12.088 12.088 0 007.643 2.705 12.174 12.174 0 008.012-2.951 11.789 11.789 0 004-7.436h1.829a11.784 11.784 0 003.944 7.51A12.171 12.171 0 0043.292 40c2.964 0 5.823-1.073 8.033-3.015a11.784 11.784 0 003.944-7.511h4.018c.232.016.465-.024.678-.117.212-.093.398-.236.541-.417a1.38 1.38 0 00.227-1.293z"/>
    <path d="M50.92 15.917a4.576 4.576 0 01-1.729-.335 4.515 4.515 0 01-1.466-.96 4.431 4.431 0 01-.98-1.44 4.37 4.37 0 01-.344-1.699 4.406 4.406 0 01-1.328 3.136 4.56 4.56 0 01-3.192 1.298 4.57 4.57 0 013.193 1.304 4.416 4.416 0 011.327 3.14c0-1.18.476-2.31 1.323-3.143a4.56 4.56 0 013.196-1.301zM38.074 19.383a2.786 2.786 0 01-1.953-.796 2.692 2.692 0 01-.809-1.92c0 .719-.29 1.408-.805 1.917a2.786 2.786 0 01-1.947.799c.73 0 1.43.285 1.946.792.516.507.806 1.196.806 1.913a2.693 2.693 0 01.813-1.914 2.787 2.787 0 011.95-.791zM10.785 33.64a2.786 2.786 0 01-1.94-.802 2.692 2.692 0 01-.802-1.913c0 .719-.29 1.408-.805 1.917a2.786 2.786 0 01-1.947.799c.73.002 1.43.29 1.947.799.516.508.805 1.198.805 1.916 0-.717.288-1.404.802-1.913a2.786 2.786 0 011.94-.802z" fill="#D22856"/>
  </symbol>

  <symbol viewBox="0 0 50 24" id="menu-burger">
    <path d="M1.137 0c-.15-.003-.3.021-.439.07C.558.12.432.195.326.288A.98.98 0 00.08.614.877.877 0 000 1v2c0 .265.12.52.333.707.213.188.502.293.804.293h47.726c.15.003.3-.021.439-.07.14-.05.266-.123.372-.217a.98.98 0 00.246-.327A.877.877 0 0050 3V1c0-.265-.12-.52-.333-.707A1.22 1.22 0 0048.863 0H1.137zm0 10a1.25 1.25 0 00-.439.07c-.14.05-.266.123-.372.217a.98.98 0 00-.246.327A.877.877 0 000 11v2c0 .265.12.52.333.707.213.188.502.293.804.293h47.726c.15.003.3-.021.439-.07.14-.05.266-.123.372-.217a.98.98 0 00.246-.327A.877.877 0 0050 13v-2c0-.265-.12-.52-.333-.707a1.22 1.22 0 00-.804-.293H1.137zm0 10c-.15-.003-.3.021-.439.07-.14.05-.266.123-.372.217a.98.98 0 00-.246.327A.877.877 0 000 21v2c0 .265.12.52.333.707.213.187.502.293.804.293h47.726c.15.003.3-.021.439-.07.14-.05.266-.124.372-.217a.98.98 0 00.246-.327A.877.877 0 0050 23v-2c0-.265-.12-.52-.333-.707a1.22 1.22 0 00-.804-.293H1.137z"/>
  </symbol>

  <symbol viewBox="0 0 23 23" id="close-menu">
    <path d="M20.849 0L0 20.849 2.151 23 23 2.151 20.849 0z"/>
    <path d="M2.151 0L0 2.151 20.849 23 23 20.849 2.151 0z"/>
  </symbol>

  <symbol viewBox="0 0 43 47" id="android-logo">
    <path d="M34.886 14.062H8.114v19.133c-.011.913.332 1.795.96 2.468a3.697 3.697 0 002.422 1.159v7.453c.044.737.374 1.43.922 1.936a2.986 2.986 0 002.026.789c.753 0 1.478-.282 2.026-.789.548-.506.878-1.199.922-1.936v-7.433h8.236v7.433c.045.737.375 1.43.922 1.936a2.985 2.985 0 002.026.789c.754 0 1.478-.282 2.026-.789.548-.506.878-1.199.922-1.936v-7.453a3.707 3.707 0 002.426-1.158c.63-.673.975-1.555.967-2.468V14.402l-.03-.34zM2.953 15.745c.78 0 1.53.304 2.081.845.552.54.862 1.275.862 2.04v12.402c.001.38-.074.756-.22 1.107a2.88 2.88 0 01-.638.94 2.947 2.947 0 01-.956.627 2.995 2.995 0 01-3.217-.627A2.866 2.866 0 010 31.032V18.63c0-.38.076-.756.225-1.107.149-.35.366-.669.64-.937.275-.268.6-.48.959-.625a2.995 2.995 0 011.13-.216zM40.057 15.745c.78 0 1.53.304 2.081.845.552.54.862 1.275.862 2.04v12.402c.001.38-.074.756-.221 1.107-.147.351-.364.67-.637.94a2.947 2.947 0 01-.956.627 2.994 2.994 0 01-3.217-.627 2.867 2.867 0 01-.865-2.047V18.63c0-.38.076-.756.225-1.107.148-.35.366-.669.64-.937.275-.268.6-.48.959-.625a2.995 2.995 0 011.129-.216zM8.175 12.058h26.568a10.404 10.404 0 00-3.26-7.293L34.049.498a.307.307 0 00-.122-.461.322.322 0 00-.42.11l-2.42 4.157A16.708 16.708 0 0021.458.898a16.977 16.977 0 00-9.575 3.406L9.504.187a.325.325 0 00-.184-.16.333.333 0 00-.246.01.315.315 0 00-.112.42l2.493 4.238a10.443 10.443 0 00-3.28 7.363zm17.699-5.21c0-.398.161-.78.449-1.062.287-.281.677-.44 1.083-.44.407 0 .797.159 1.084.44.288.282.45.664.45 1.063 0 .398-.162.78-.45 1.062-.287.282-.677.44-1.084.44-.406 0-.796-.158-1.083-.44a1.488 1.488 0 01-.45-1.062zm-11.384 0c0-.398.162-.78.449-1.062.287-.281.677-.44 1.084-.44.406 0 .796.159 1.084.44.287.282.449.664.449 1.063 0 .398-.162.78-.45 1.062-.287.282-.677.44-1.083.44-.407 0-.797-.158-1.084-.44a1.488 1.488 0 01-.449-1.062z" fill="#A4C639"/>
  </symbol>

  <symbol viewBox="0 0 47 56" id="apple-logo">
    <path d="M39.245 29.74a12.09 12.09 0 002.127 6.787A12.668 12.668 0 0047 41.063a29.794 29.794 0 01-4 7.96c-2.401 3.413-4.905 6.816-8.844 6.904-3.938.09-5.088-2.219-9.526-2.219-4.437 0-5.8 2.15-9.465 2.288-3.663.139-6.686-3.718-9.088-7.111-4.956-6.905-8.752-19.639-3.664-28.2a13.925 13.925 0 015.024-5.037 14.489 14.489 0 016.935-1.977c3.724-.069 7.246 2.427 9.526 2.427 2.28 0 6.564-3.009 11.062-2.565 2.084.073 4.121.613 5.954 1.576a13.387 13.387 0 014.61 3.977c-.275.168-6.31 3.571-6.249 10.653h-.03zM31.978 8.936C34.16 6.46 35.238 3.247 34.981 0c-3.305.302-6.364 1.82-8.55 4.241-1.862 2.092-3.5 5.445-3.053 8.66 3.247.247 6.555-1.597 8.57-3.945" fill="#fff"/>
  </symbol>

  <symbol  id="microsoft-logo">
    <path d="M20.908 19.524H0V0h20.908v19.524z" fill="#F05423"/>
    <path d="M44 19.524H23.092V0H44v19.524z" fill="#84C441"/>
    <path d="M20.908 41H0V21.476h20.908V41z" fill="#2DABE2"/>
    <path d="M44 41H23.092V21.476H44V41z" fill="#F9BC15"/>
  </symbol>

  <symbol viewBox="0 0 238 276" fill="none" id="stopwatch">
    <path d="M211.314 81.628l4.273-4.287c6.165-6.175 7.291-15.148 2.499-19.94-4.792-4.79-13.752-3.678-19.91 2.496l-4.305 4.311a118.265 118.265 0 00-59.684-25.578v-7.67h6.118c8.714 0 15.846-6.966 15.846-15.476 0-8.51-7.132-15.484-15.846-15.484H97.721c-8.714 0-15.846 6.966-15.846 15.484S89.008 30.96 97.722 30.96h6.118v7.67a118.935 118.935 0 00-69.052 34A119.238 119.238 0 00.946 141.836a119.313 119.313 0 0015.518 75.474 119.047 119.047 0 0058.389 50.187 118.839 118.839 0 0076.847 3.916 118.988 118.988 0 0063.175-43.991 119.28 119.28 0 0023.089-73.506 119.27 119.27 0 00-26.65-72.287zm-92.301 163.319a87.901 87.901 0 01-48.884-14.85 88.092 88.092 0 01-32.407-39.546 88.23 88.23 0 01-5.006-50.911A88.153 88.153 0 0156.8 94.524a87.95 87.95 0 0145.053-24.113 87.87 87.87 0 0150.838 5.017 88.012 88.012 0 0139.486 32.457 88.197 88.197 0 0114.825 48.956 88.177 88.177 0 01-25.774 62.301 87.923 87.923 0 01-62.214 25.805z" fill="#DEDEDE"/>
    <circle cx="119" cy="157" r="93" stroke="#D22856" stroke-width="16"/>
    <path d="M115.906 191H68v-10.078l17.203-17.391c5.094-5.219 8.422-8.828 9.984-10.828 1.563-2.031 2.688-3.906 3.376-5.625a14.262 14.262 0 001.03-5.344c0-2.75-.765-4.796-2.296-6.14-1.5-1.344-3.516-2.016-6.047-2.016-2.656 0-5.234.61-7.734 1.828-2.5 1.219-5.11 2.953-7.829 5.203l-7.874-9.328c3.374-2.875 6.171-4.906 8.39-6.093 2.219-1.188 4.64-2.094 7.266-2.719 2.625-.657 5.562-.985 8.812-.985 4.281 0 8.063.782 11.344 2.344 3.281 1.563 5.828 3.75 7.641 6.563 1.812 2.812 2.718 6.031 2.718 9.656 0 3.156-.562 6.125-1.687 8.906-1.094 2.75-2.813 5.578-5.156 8.485-2.313 2.906-6.407 7.046-12.282 12.421l-8.812 8.297v.656h29.859V191zm56.391-14.203h-8.25V191h-14.156v-14.203h-29.25v-10.078l30.047-44.25h13.359v43.078h8.25v11.25zm-22.406-11.25v-11.625c0-1.938.078-4.75.234-8.438.156-3.687.281-5.828.375-6.422h-.375a52.198 52.198 0 01-4.172 7.5l-12.562 18.985h16.5z" fill="#D22856"/>
  </symbol>

  <symbol viewBox="0 0 44 44" id="btn-cut">
    <path d="M32 28h4V12a4 4 0 00-4-4H16v4h16v16zm-20 4V0H8v8H0v4h8v20a4 4 0 004 4h20v8h4v-8h8v-4H12z"/>
  </symbol>

  <symbol viewBox="0 0 48 43" id="btn-paint">
    <path d="M33.12 17.88L15.24 0l-2.83 2.83 4.76 4.76L6.88 17.88a3 3 0 000 4.24l11 11a3 3 0 004.24 0l11-11a3 3 0 000-4.24zM10.41 20L20 10.42 29.59 20H10.41zM38 23s-4 4.33-4 7a4 4 0 108 0c0-2.67-4-7-4-7zM48 40H0v3h48v-3z"/>
  </symbol>

  <symbol viewBox="0 0 32 32" id="btn-contrast">
    <path d="M16 4a12 12 0 110 24 12 12 0 010-24zm0-4a16 16 0 100 32 16 16 0 000-32zM16 24.29a8.52 8.52 0 000-17"/>
  </symbol>

  <symbol viewBox="0 0 27 34" id="html-academy">
    <path d="M13.643.016L13.5 0 0 1.407v24.606L13.5 34 27 26.013V1.407L13.643.016zm11.591 25L13.5 31.956 1.766 25.015V14.93l11.685 6.916.02 1.253-8.017-4.743-.011 1.225 8.046 4.809.02 1.286-8.045-4.758-.01 1.226L13.5 26.95l8.124-4.833V16.91l3.62-2.15-.01 10.256zm0-11.564l-3.22 1.88-1.482.875-7.065-4.187-.011 1.225 6.04 3.573-.053.031-.13.076-.86.492-4.986-2.948-.011 1.225 3.936 2.328-.933.61-.021.012-2.971-1.742-.011 1.225 1.947 1.135-1.988 1.186-11.618-6.872 11.638-6.958 11.8 6.834zm0-1.225L13.44 5.31 1.766 12.22V2.99L13.5 1.764 25.234 2.99v9.237z"/>
  </symbol>

  <symbol viewBox="0 0 18 14" id="icon-twitter">
    <path d="M11.5641 0.168904C12.2458 -0.0461515 12.9837 -0.0560928 13.6719 0.140507C14.3602 0.337107 14.9633 0.730138 15.3947 1.26319C16.1053 1.05385 16.8055 0.815959 17.5263 0.606617C17.5164 0.925848 17.4299 1.23907 17.2732 1.52372C17.1165 1.80837 16.8935 2.05738 16.6201 2.2528C16.8726 2.27877 17.1281 2.25112 17.3673 2.17197C17.6064 2.09281 17.8228 1.96424 18 1.79606C17.901 2.20987 17.6999 2.59695 17.4123 2.92708C17.1247 3.2572 16.7585 3.52144 16.3421 3.69916C16.095 9.96988 12.9748 14.1662 5.65332 13.9949H5.14874C4.70595 13.9949 0.731121 13.5667 0 12.2441C1.75201 12.4899 3.53888 12.0976 4.98398 11.1498C3.95423 10.8643 2.13158 10.7026 1.82265 8.40934C2.2108 8.54337 2.6321 8.57306 3.03776 8.49498C1.76087 7.70519 0.339817 7.0391 0.422197 4.99327C0.819634 5.29882 1.3269 5.45507 1.84325 5.43098C1.10183 5.20261 -0.24714 2.30989 0.895881 0.825474C2.82151 2.54778 4.86041 4.17493 8.48512 4.3367C8.71167 2.20522 9.68993 0.777896 11.5641 0.168904Z" fill="#D22856"/>
  </symbol>

  <symbol viewBox="0 0 9 18" id="icon-facebook">
    <path d="M6.50865 3.19324H9V0H6.02076C2.76125 0.171067 1.59862 2.27138 2.07612 5.81626H0V9.15206H2.07612V18H6.02076V9.15206H8.97924V5.81626H6.01038C5.98962 4.81837 5.96886 3.52587 6.50865 3.19324Z" fill="#D22856"/>
  </symbol>

  <symbol viewBox="0 0 15 13" id="icon-youtube">
    <path d="M1.83356 12.8089C1.64633 12.9278 1.42471 12.9941 1.19626 12.9996C0.967817 13.0051 0.74263 12.9495 0.548717 12.8398C0.354804 12.7301 0.200724 12.571 0.105646 12.3824C0.010569 12.1938 -0.0213097 11.984 0.0139762 11.779V1.22097C-0.0213097 1.01605 0.010569 0.806234 0.105646 0.617628C0.200724 0.429021 0.354804 0.269949 0.548717 0.1602C0.74263 0.0504516 0.967817 -0.00512927 1.19626 0.000372265C1.42471 0.0058738 1.64633 0.0722149 1.83356 0.191142L14.2333 5.69284C15.2556 6.13817 15.2556 6.86183 14.2333 7.30716L1.83356 12.8089Z" fill="#D22856"/>
  </symbol>

  <symbol  viewBox="0 0 145 40" id="logo-footer">
    <path d="M71.005 18.549c0-.337.13-.66.365-.9.234-.24.552-.379.887-.387h7.133c5.057 0 8.385 2.703 8.385 7.13v.06c0 4.846-4.034 7.358-8.802 7.358h-5.435v6.801a1.282 1.282 0 01-.754 1.28 1.27 1.27 0 01-1.717-.758 1.282 1.282 0 01-.062-.522V18.549zm8.067 10.968c3.706 0 6.14-1.994 6.14-4.986v-.06c0-3.21-2.395-4.875-5.961-4.875h-5.663v9.881l5.484.04zM92.594 18.389a1.282 1.282 0 01.754-1.28 1.269 1.269 0 011.717.758c.056.168.078.346.062.522v20.222a1.28 1.28 0 01-.754 1.28 1.27 1.27 0 01-1.717-.758 1.282 1.282 0 01-.063-.522V18.389zM101.674 18.419a1.278 1.278 0 011.252-1.247h.347a1.535 1.535 0 011.282.738l13.601 17.4V18.36c0-.329.13-.643.361-.875a1.229 1.229 0 011.742 0c.231.232.361.546.361.874v20.292c.005.154-.021.308-.076.452a1.13 1.13 0 01-1.077.725h-.129a1.69 1.69 0 01-1.311-.778l-13.909-17.81v17.41a1.257 1.257 0 01-1.192 1.247 1.23 1.23 0 01-1.212-1.246V18.419h-.04zM126.938 18.389a1.284 1.284 0 01.755-1.28 1.267 1.267 0 011.45.306 1.287 1.287 0 01.329.974v12.295l12.756-13.133c.262-.271.617-.432.994-.448.325.012.633.15.86.383.227.234.357.546.362.873a1.28 1.28 0 01-.418.897l-7.948 7.898 8.574 10.53c.224.26.348.593.348.937a1.309 1.309 0 01-1.341 1.276 1.228 1.228 0 01-.994-.578l-8.365-10.46-4.828 4.846v4.886a1.278 1.278 0 01-.37.895 1.26 1.26 0 01-2.154-.895V18.389h-.01z"/>
    <path fill-rule="evenodd" clip-rule="evenodd" d="M53.892 6.586l5.038 21.145a1.418 1.418 0 01-.22 1.297 1.356 1.356 0 01-1.183.535H53.52c-.69 5.812-5.57 10.315-11.489 10.315-5.917 0-10.798-4.503-11.488-10.314h-1.965C27.887 35.442 22.953 40 16.968 40c-5.994 0-10.934-4.573-11.612-10.466H1.45a1.364 1.364 0 01-1.154-.536 1.418 1.418 0 01-.24-1.267L5.106 6.586C5.455 4.26 7.639 0 13.486 0c.388 0 .76.157 1.034.435.274.279.428.657.428 1.05 0 .395-.154.772-.428 1.051a1.45 1.45 0 01-1.034.435c-4.707 0-5.438 3.694-5.497 4.1L3.341 26.602h2.034c.746-5.817 5.652-10.31 11.593-10.31 5.939 0 10.843 4.488 11.593 10.3l1.998.01c.745-5.75 5.598-10.189 11.473-10.189 5.886 0 10.746 4.456 11.477 10.222v-.053h2.137l-4.639-19.51c-.068-.407-.77-4.1-5.497-4.1a1.45 1.45 0 01-1.033-.436 1.498 1.498 0 01-.428-1.05c0-.394.154-.772.428-1.05A1.45 1.45 0 0145.51 0c5.848 0 8.03 4.259 8.382 6.586zm-28.22 22.977a9.122 9.122 0 00-.022-2.97c-.725-4.195-4.336-7.383-8.681-7.383-4.349 0-7.961 3.192-8.683 7.391a9.114 9.114 0 00-.025 2.94c.66 4.273 4.308 7.541 8.707 7.541 4.392 0 8.034-3.257 8.704-7.518zm24.942 0c.073-.461.112-.934.112-1.417 0-4.868-3.893-8.815-8.694-8.815-4.802 0-8.695 3.947-8.695 8.815 0 .482.039.956.112 1.418.669 4.194 4.257 7.397 8.583 7.397 4.325 0 7.913-3.203 8.582-7.397z" fill="#D22856"/>
  </symbol>

  <symbol  viewBox="0 0 147 40" id="logo-stars-footer">
    <path d="M72.193 18.425c0-.333.133-.652.369-.89.237-.238.558-.376.897-.384h7.211c5.113 0 8.477 2.676 8.477 7.06v.06c0 4.798-4.078 7.287-8.899 7.287h-5.494v6.734a1.243 1.243 0 01-.332.965 1.286 1.286 0 01-.948.41 1.304 1.304 0 01-.949-.41 1.26 1.26 0 01-.332-.965V18.425zm8.156 10.861c3.746 0 6.207-1.974 6.207-4.937v-.059c0-3.18-2.42-4.828-6.026-4.828h-5.725v9.785l5.544.04zM94.019 18.267a1.244 1.244 0 01.332-.965 1.287 1.287 0 01.948-.41 1.304 1.304 0 01.948.41 1.26 1.26 0 01.333.965v20.024a1.245 1.245 0 01-.332.966 1.285 1.285 0 01-.949.41 1.305 1.305 0 01-.948-.41 1.26 1.26 0 01-.332-.965V18.267zM103.199 18.296a1.25 1.25 0 01.38-.867c.236-.23.553-.362.885-.367h.352c.261.005.516.075.743.203.226.127.416.309.552.528l13.751 17.23V18.237c0-.325.131-.636.364-.866a1.259 1.259 0 011.762 0c.233.23.364.541.364.866v20.094a1.117 1.117 0 01-.711 1.082 1.16 1.16 0 01-.454.083h-.13a1.739 1.739 0 01-.756-.231 1.708 1.708 0 01-.57-.54L105.67 21.092v17.24a1.238 1.238 0 01-.353.853c-.224.23-.529.366-.853.38a1.257 1.257 0 01-.871-.368 1.21 1.21 0 01-.354-.865V18.296h-.04zM128.74 18.267a1.244 1.244 0 01.332-.965 1.288 1.288 0 01.949-.41 1.304 1.304 0 01.948.41 1.243 1.243 0 01.332.965v12.175l12.897-13.004c.264-.27.624-.428 1.004-.445.329.013.64.149.87.38.23.232.361.541.366.864a1.262 1.262 0 01-.422.89l-8.035 7.82 8.667 10.426c.227.258.352.588.352.928a1.287 1.287 0 01-.847 1.18c-.162.06-.335.09-.509.084a1.228 1.228 0 01-1.004-.572l-8.447-10.358-4.892 4.799v4.838a1.238 1.238 0 01-.373.886 1.282 1.282 0 01-.902.368 1.29 1.29 0 01-.902-.368 1.244 1.244 0 01-.374-.886V18.267h-.01z"/>
    <path d="M98.94 9.746a3.678 3.678 0 01-2.574-1.047 3.554 3.554 0 01-1.072-2.528c0 .948-.383 1.858-1.065 2.528a3.668 3.668 0 01-2.57 1.047c.965.002 1.89.381 2.57 1.053a3.553 3.553 0 011.065 2.531c.003-.95.388-1.86 1.071-2.531a3.688 3.688 0 012.575-1.053zM43.287 19.067h.733a2.47 2.47 0 00-.906-.887 2.524 2.524 0 00-1.233-.328c-.418 0-.826-.129-1.166-.368a1.979 1.979 0 01-.732-.965 12.27 12.27 0 00-2.1.81h.191c.533 0 1.044.208 1.42.578.377.37.589.873.589 1.396.005.096.005.191 0 .287a8.975 8.975 0 013.204-.523z" fill="#D22856"/>
    <path d="M60.733 27.647l-5.192-21.08C55.179 4.245 52.929 0 46.903 0c-.4 0-.783.156-1.066.434a1.469 1.469 0 00-.44 1.047c0 .393.158.77.44 1.047a1.52 1.52 0 001.066.434c4.871 0 5.594 3.683 5.665 4.088l4.78 19.452H55.25a11.721 11.721 0 00-1.724-4.78 11.946 11.946 0 00-3.599-3.633 2.502 2.502 0 00-1.116.908c-.274.404-.42.878-.42 1.363.005.086.005.171 0 .257a9.148 9.148 0 012.922 3.207 8.974 8.974 0 011.095 4.169 9.042 9.042 0 01-.14 1.48 8.849 8.849 0 01-3.05 5.393 9.132 9.132 0 01-5.885 2.141 9.132 9.132 0 01-5.885-2.141 8.849 8.849 0 01-3.049-5.392 9.031 9.031 0 01-.14-1.481c.015-1.37.341-2.72.954-3.95a2.023 2.023 0 01-1.33-.625 1.957 1.957 0 01-.538-1.35.694.694 0 00-.191-.483 11.566 11.566 0 00-1.798 4.936h-1.868a11.782 11.782 0 00-3.933-7.54 12.17 12.17 0 00-8.05-3.03 12.17 12.17 0 00-8.05 3.03 11.782 11.782 0 00-3.932 7.54H3.443L8.233 7.05c.061-.405.814-4.088 5.666-4.088.4 0 .783-.156 1.065-.434.282-.277.441-.654.441-1.047 0-.393-.159-.77-.441-1.047A1.52 1.52 0 0013.899 0C7.872 0 5.623 4.246 5.26 6.566L.058 27.647a1.38 1.38 0 00.247 1.263c.14.176.322.316.529.41.207.092.433.135.66.124h4.018c.082.611.21 1.215.382 1.807a.731.731 0 00.1-.355c0-.524.212-1.026.589-1.397.376-.37.887-.578 1.42-.578.162.004.324.024.482.06a8.536 8.536 0 01-.07-.988c.002-.497.046-.992.13-1.481a8.848 8.848 0 013.042-5.414 9.131 9.131 0 015.897-2.152c2.165 0 4.258.764 5.898 2.152a8.848 8.848 0 013.041 5.414c.085.49.128.984.131 1.48a8.775 8.775 0 01-1.334 4.7 8.984 8.984 0 01-3.656 3.298 9.174 9.174 0 01-9.503-.858c-.363.31-.826.48-1.306.483a.76.76 0 00-.526.22.734.734 0 00-.217.521 1.946 1.946 0 01-.181.8 12.088 12.088 0 007.643 2.705 12.174 12.174 0 008.012-2.951 11.789 11.789 0 004-7.436h1.829a11.784 11.784 0 003.944 7.51A12.171 12.171 0 0043.292 40c2.964 0 5.823-1.073 8.033-3.015a11.784 11.784 0 003.944-7.511h4.018c.232.016.465-.024.678-.117.212-.093.398-.236.541-.417a1.38 1.38 0 00.227-1.293z" fill="#D22856"/>
    <path d="M50.92 15.917a4.577 4.577 0 01-1.729-.335 4.516 4.516 0 01-1.466-.96 4.43 4.43 0 01-.98-1.44 4.37 4.37 0 01-.344-1.699 4.406 4.406 0 01-1.328 3.136 4.56 4.56 0 01-3.192 1.298 4.57 4.57 0 013.193 1.304 4.416 4.416 0 011.327 3.14c0-1.18.476-2.31 1.323-3.143a4.56 4.56 0 013.196-1.301zM38.074 19.383a2.786 2.786 0 01-1.953-.796 2.692 2.692 0 01-.809-1.92c0 .719-.29 1.408-.805 1.917a2.786 2.786 0 01-1.947.799c.73 0 1.43.285 1.946.792.516.508.806 1.196.806 1.913a2.693 2.693 0 01.813-1.913 2.787 2.787 0 011.95-.792zM10.785 33.64a2.786 2.786 0 01-1.94-.802 2.692 2.692 0 01-.802-1.913c0 .719-.29 1.408-.805 1.917a2.786 2.786 0 01-1.947.799c.73.002 1.43.29 1.947.798.515.51.805 1.199.805 1.917 0-.717.288-1.404.802-1.913a2.786 2.786 0 011.94-.802z" fill="#283645"/>
  </symbol>

</svg>
